%TF.GenerationSoftware,KiCad,Pcbnew,(5.1.6)-1*%
%TF.CreationDate,2020-07-18T16:19:54-07:00*%
%TF.ProjectId,BPEM488THD,4250454d-3438-4385-9448-442e6b696361,rev?*%
%TF.SameCoordinates,Original*%
%TF.FileFunction,Legend,Bot*%
%TF.FilePolarity,Positive*%
%FSLAX46Y46*%
G04 Gerber Fmt 4.6, Leading zero omitted, Abs format (unit mm)*
G04 Created by KiCad (PCBNEW (5.1.6)-1) date 2020-07-18 16:19:54*
%MOMM*%
%LPD*%
G01*
G04 APERTURE LIST*
%ADD10C,0.150000*%
G04 APERTURE END LIST*
D10*
X204658571Y-62193333D02*
X204706190Y-62336190D01*
X204753809Y-62383809D01*
X204849047Y-62431428D01*
X204991904Y-62431428D01*
X205087142Y-62383809D01*
X205134761Y-62336190D01*
X205182380Y-62240952D01*
X205182380Y-61860000D01*
X204182380Y-61860000D01*
X204182380Y-62193333D01*
X204230000Y-62288571D01*
X204277619Y-62336190D01*
X204372857Y-62383809D01*
X204468095Y-62383809D01*
X204563333Y-62336190D01*
X204610952Y-62288571D01*
X204658571Y-62193333D01*
X204658571Y-61860000D01*
X205182380Y-62860000D02*
X204182380Y-62860000D01*
X204182380Y-63240952D01*
X204230000Y-63336190D01*
X204277619Y-63383809D01*
X204372857Y-63431428D01*
X204515714Y-63431428D01*
X204610952Y-63383809D01*
X204658571Y-63336190D01*
X204706190Y-63240952D01*
X204706190Y-62860000D01*
X204658571Y-63860000D02*
X204658571Y-64193333D01*
X205182380Y-64336190D02*
X205182380Y-63860000D01*
X204182380Y-63860000D01*
X204182380Y-64336190D01*
X205182380Y-64764761D02*
X204182380Y-64764761D01*
X204896666Y-65098095D01*
X204182380Y-65431428D01*
X205182380Y-65431428D01*
X204515714Y-66336190D02*
X205182380Y-66336190D01*
X204134761Y-66098095D02*
X204849047Y-65860000D01*
X204849047Y-66479047D01*
X204610952Y-67002857D02*
X204563333Y-66907619D01*
X204515714Y-66860000D01*
X204420476Y-66812380D01*
X204372857Y-66812380D01*
X204277619Y-66860000D01*
X204230000Y-66907619D01*
X204182380Y-67002857D01*
X204182380Y-67193333D01*
X204230000Y-67288571D01*
X204277619Y-67336190D01*
X204372857Y-67383809D01*
X204420476Y-67383809D01*
X204515714Y-67336190D01*
X204563333Y-67288571D01*
X204610952Y-67193333D01*
X204610952Y-67002857D01*
X204658571Y-66907619D01*
X204706190Y-66860000D01*
X204801428Y-66812380D01*
X204991904Y-66812380D01*
X205087142Y-66860000D01*
X205134761Y-66907619D01*
X205182380Y-67002857D01*
X205182380Y-67193333D01*
X205134761Y-67288571D01*
X205087142Y-67336190D01*
X204991904Y-67383809D01*
X204801428Y-67383809D01*
X204706190Y-67336190D01*
X204658571Y-67288571D01*
X204610952Y-67193333D01*
X204610952Y-67955238D02*
X204563333Y-67860000D01*
X204515714Y-67812380D01*
X204420476Y-67764761D01*
X204372857Y-67764761D01*
X204277619Y-67812380D01*
X204230000Y-67860000D01*
X204182380Y-67955238D01*
X204182380Y-68145714D01*
X204230000Y-68240952D01*
X204277619Y-68288571D01*
X204372857Y-68336190D01*
X204420476Y-68336190D01*
X204515714Y-68288571D01*
X204563333Y-68240952D01*
X204610952Y-68145714D01*
X204610952Y-67955238D01*
X204658571Y-67860000D01*
X204706190Y-67812380D01*
X204801428Y-67764761D01*
X204991904Y-67764761D01*
X205087142Y-67812380D01*
X205134761Y-67860000D01*
X205182380Y-67955238D01*
X205182380Y-68145714D01*
X205134761Y-68240952D01*
X205087142Y-68288571D01*
X204991904Y-68336190D01*
X204801428Y-68336190D01*
X204706190Y-68288571D01*
X204658571Y-68240952D01*
X204610952Y-68145714D01*
X204182380Y-69383809D02*
X204182380Y-69955238D01*
X205182380Y-69669523D02*
X204182380Y-69669523D01*
X205182380Y-70288571D02*
X204182380Y-70288571D01*
X204182380Y-70526666D01*
X204230000Y-70669523D01*
X204325238Y-70764761D01*
X204420476Y-70812380D01*
X204610952Y-70860000D01*
X204753809Y-70860000D01*
X204944285Y-70812380D01*
X205039523Y-70764761D01*
X205134761Y-70669523D01*
X205182380Y-70526666D01*
X205182380Y-70288571D01*
X205182380Y-71288571D02*
X204182380Y-71288571D01*
X204658571Y-71288571D02*
X204658571Y-71860000D01*
X205182380Y-71860000D02*
X204182380Y-71860000D01*
X206832380Y-56669523D02*
X205832380Y-56669523D01*
X205832380Y-56907619D01*
X205880000Y-57050476D01*
X205975238Y-57145714D01*
X206070476Y-57193333D01*
X206260952Y-57240952D01*
X206403809Y-57240952D01*
X206594285Y-57193333D01*
X206689523Y-57145714D01*
X206784761Y-57050476D01*
X206832380Y-56907619D01*
X206832380Y-56669523D01*
X206784761Y-58050476D02*
X206832380Y-57955238D01*
X206832380Y-57764761D01*
X206784761Y-57669523D01*
X206689523Y-57621904D01*
X206308571Y-57621904D01*
X206213333Y-57669523D01*
X206165714Y-57764761D01*
X206165714Y-57955238D01*
X206213333Y-58050476D01*
X206308571Y-58098095D01*
X206403809Y-58098095D01*
X206499047Y-57621904D01*
X206784761Y-58479047D02*
X206832380Y-58574285D01*
X206832380Y-58764761D01*
X206784761Y-58860000D01*
X206689523Y-58907619D01*
X206641904Y-58907619D01*
X206546666Y-58860000D01*
X206499047Y-58764761D01*
X206499047Y-58621904D01*
X206451428Y-58526666D01*
X206356190Y-58479047D01*
X206308571Y-58479047D01*
X206213333Y-58526666D01*
X206165714Y-58621904D01*
X206165714Y-58764761D01*
X206213333Y-58860000D01*
X206832380Y-59336190D02*
X206165714Y-59336190D01*
X205832380Y-59336190D02*
X205880000Y-59288571D01*
X205927619Y-59336190D01*
X205880000Y-59383809D01*
X205832380Y-59336190D01*
X205927619Y-59336190D01*
X206165714Y-60240952D02*
X206975238Y-60240952D01*
X207070476Y-60193333D01*
X207118095Y-60145714D01*
X207165714Y-60050476D01*
X207165714Y-59907619D01*
X207118095Y-59812380D01*
X206784761Y-60240952D02*
X206832380Y-60145714D01*
X206832380Y-59955238D01*
X206784761Y-59860000D01*
X206737142Y-59812380D01*
X206641904Y-59764761D01*
X206356190Y-59764761D01*
X206260952Y-59812380D01*
X206213333Y-59860000D01*
X206165714Y-59955238D01*
X206165714Y-60145714D01*
X206213333Y-60240952D01*
X206165714Y-60717142D02*
X206832380Y-60717142D01*
X206260952Y-60717142D02*
X206213333Y-60764761D01*
X206165714Y-60860000D01*
X206165714Y-61002857D01*
X206213333Y-61098095D01*
X206308571Y-61145714D01*
X206832380Y-61145714D01*
X206784761Y-62002857D02*
X206832380Y-61907619D01*
X206832380Y-61717142D01*
X206784761Y-61621904D01*
X206689523Y-61574285D01*
X206308571Y-61574285D01*
X206213333Y-61621904D01*
X206165714Y-61717142D01*
X206165714Y-61907619D01*
X206213333Y-62002857D01*
X206308571Y-62050476D01*
X206403809Y-62050476D01*
X206499047Y-61574285D01*
X206832380Y-62907619D02*
X205832380Y-62907619D01*
X206784761Y-62907619D02*
X206832380Y-62812380D01*
X206832380Y-62621904D01*
X206784761Y-62526666D01*
X206737142Y-62479047D01*
X206641904Y-62431428D01*
X206356190Y-62431428D01*
X206260952Y-62479047D01*
X206213333Y-62526666D01*
X206165714Y-62621904D01*
X206165714Y-62812380D01*
X206213333Y-62907619D01*
X206832380Y-64145714D02*
X205832380Y-64145714D01*
X206213333Y-64145714D02*
X206165714Y-64240952D01*
X206165714Y-64431428D01*
X206213333Y-64526666D01*
X206260952Y-64574285D01*
X206356190Y-64621904D01*
X206641904Y-64621904D01*
X206737142Y-64574285D01*
X206784761Y-64526666D01*
X206832380Y-64431428D01*
X206832380Y-64240952D01*
X206784761Y-64145714D01*
X206165714Y-64955238D02*
X206832380Y-65193333D01*
X206165714Y-65431428D02*
X206832380Y-65193333D01*
X207070476Y-65098095D01*
X207118095Y-65050476D01*
X207165714Y-64955238D01*
X206832380Y-67145714D02*
X206356190Y-66812380D01*
X206832380Y-66574285D02*
X205832380Y-66574285D01*
X205832380Y-66955238D01*
X205880000Y-67050476D01*
X205927619Y-67098095D01*
X206022857Y-67145714D01*
X206165714Y-67145714D01*
X206260952Y-67098095D01*
X206308571Y-67050476D01*
X206356190Y-66955238D01*
X206356190Y-66574285D01*
X206832380Y-67717142D02*
X206784761Y-67621904D01*
X206737142Y-67574285D01*
X206641904Y-67526666D01*
X206356190Y-67526666D01*
X206260952Y-67574285D01*
X206213333Y-67621904D01*
X206165714Y-67717142D01*
X206165714Y-67860000D01*
X206213333Y-67955238D01*
X206260952Y-68002857D01*
X206356190Y-68050476D01*
X206641904Y-68050476D01*
X206737142Y-68002857D01*
X206784761Y-67955238D01*
X206832380Y-67860000D01*
X206832380Y-67717142D01*
X206832380Y-68479047D02*
X205832380Y-68479047D01*
X206213333Y-68479047D02*
X206165714Y-68574285D01*
X206165714Y-68764761D01*
X206213333Y-68860000D01*
X206260952Y-68907619D01*
X206356190Y-68955238D01*
X206641904Y-68955238D01*
X206737142Y-68907619D01*
X206784761Y-68860000D01*
X206832380Y-68764761D01*
X206832380Y-68574285D01*
X206784761Y-68479047D01*
X206784761Y-69764761D02*
X206832380Y-69669523D01*
X206832380Y-69479047D01*
X206784761Y-69383809D01*
X206689523Y-69336190D01*
X206308571Y-69336190D01*
X206213333Y-69383809D01*
X206165714Y-69479047D01*
X206165714Y-69669523D01*
X206213333Y-69764761D01*
X206308571Y-69812380D01*
X206403809Y-69812380D01*
X206499047Y-69336190D01*
X206832380Y-70240952D02*
X206165714Y-70240952D01*
X206356190Y-70240952D02*
X206260952Y-70288571D01*
X206213333Y-70336190D01*
X206165714Y-70431428D01*
X206165714Y-70526666D01*
X206165714Y-70717142D02*
X206165714Y-71098095D01*
X205832380Y-70860000D02*
X206689523Y-70860000D01*
X206784761Y-70907619D01*
X206832380Y-71002857D01*
X206832380Y-71098095D01*
X206832380Y-72193333D02*
X205832380Y-72193333D01*
X206308571Y-72193333D02*
X206308571Y-72764761D01*
X206832380Y-72764761D02*
X205832380Y-72764761D01*
X206832380Y-73240952D02*
X206165714Y-73240952D01*
X205832380Y-73240952D02*
X205880000Y-73193333D01*
X205927619Y-73240952D01*
X205880000Y-73288571D01*
X205832380Y-73240952D01*
X205927619Y-73240952D01*
X206784761Y-74098095D02*
X206832380Y-74002857D01*
X206832380Y-73812380D01*
X206784761Y-73717142D01*
X206689523Y-73669523D01*
X206308571Y-73669523D01*
X206213333Y-73717142D01*
X206165714Y-73812380D01*
X206165714Y-74002857D01*
X206213333Y-74098095D01*
X206308571Y-74145714D01*
X206403809Y-74145714D01*
X206499047Y-73669523D01*
X206832380Y-74574285D02*
X205832380Y-74574285D01*
X206213333Y-74574285D02*
X206165714Y-74669523D01*
X206165714Y-74860000D01*
X206213333Y-74955238D01*
X206260952Y-75002857D01*
X206356190Y-75050476D01*
X206641904Y-75050476D01*
X206737142Y-75002857D01*
X206784761Y-74955238D01*
X206832380Y-74860000D01*
X206832380Y-74669523D01*
X206784761Y-74574285D01*
X206784761Y-75860000D02*
X206832380Y-75764761D01*
X206832380Y-75574285D01*
X206784761Y-75479047D01*
X206689523Y-75431428D01*
X206308571Y-75431428D01*
X206213333Y-75479047D01*
X206165714Y-75574285D01*
X206165714Y-75764761D01*
X206213333Y-75860000D01*
X206308571Y-75907619D01*
X206403809Y-75907619D01*
X206499047Y-75431428D01*
X206832380Y-76336190D02*
X206165714Y-76336190D01*
X206356190Y-76336190D02*
X206260952Y-76383809D01*
X206213333Y-76431428D01*
X206165714Y-76526666D01*
X206165714Y-76621904D01*
X206165714Y-76812380D02*
X206165714Y-77193333D01*
X205832380Y-76955238D02*
X206689523Y-76955238D01*
X206784761Y-77002857D01*
X206832380Y-77098095D01*
X206832380Y-77193333D01*
X207482380Y-63383809D02*
X207482380Y-64050476D01*
X208482380Y-63621904D01*
X208101428Y-64431428D02*
X208101428Y-65193333D01*
X208482380Y-66193333D02*
X208482380Y-65621904D01*
X208482380Y-65907619D02*
X207482380Y-65907619D01*
X207625238Y-65812380D01*
X207720476Y-65717142D01*
X207768095Y-65621904D01*
X207910952Y-66764761D02*
X207863333Y-66669523D01*
X207815714Y-66621904D01*
X207720476Y-66574285D01*
X207672857Y-66574285D01*
X207577619Y-66621904D01*
X207530000Y-66669523D01*
X207482380Y-66764761D01*
X207482380Y-66955238D01*
X207530000Y-67050476D01*
X207577619Y-67098095D01*
X207672857Y-67145714D01*
X207720476Y-67145714D01*
X207815714Y-67098095D01*
X207863333Y-67050476D01*
X207910952Y-66955238D01*
X207910952Y-66764761D01*
X207958571Y-66669523D01*
X208006190Y-66621904D01*
X208101428Y-66574285D01*
X208291904Y-66574285D01*
X208387142Y-66621904D01*
X208434761Y-66669523D01*
X208482380Y-66764761D01*
X208482380Y-66955238D01*
X208434761Y-67050476D01*
X208387142Y-67098095D01*
X208291904Y-67145714D01*
X208101428Y-67145714D01*
X208006190Y-67098095D01*
X207958571Y-67050476D01*
X207910952Y-66955238D01*
X208101428Y-67574285D02*
X208101428Y-68336190D01*
X207577619Y-68764761D02*
X207530000Y-68812380D01*
X207482380Y-68907619D01*
X207482380Y-69145714D01*
X207530000Y-69240952D01*
X207577619Y-69288571D01*
X207672857Y-69336190D01*
X207768095Y-69336190D01*
X207910952Y-69288571D01*
X208482380Y-68717142D01*
X208482380Y-69336190D01*
X207482380Y-69955238D02*
X207482380Y-70050476D01*
X207530000Y-70145714D01*
X207577619Y-70193333D01*
X207672857Y-70240952D01*
X207863333Y-70288571D01*
X208101428Y-70288571D01*
X208291904Y-70240952D01*
X208387142Y-70193333D01*
X208434761Y-70145714D01*
X208482380Y-70050476D01*
X208482380Y-69955238D01*
X208434761Y-69860000D01*
X208387142Y-69812380D01*
X208291904Y-69764761D01*
X208101428Y-69717142D01*
X207863333Y-69717142D01*
X207672857Y-69764761D01*
X207577619Y-69812380D01*
X207530000Y-69860000D01*
X207482380Y-69955238D01*
M02*
