M48
; DRILL file {KiCad (5.1.6)-1} date 07/26/20 20:56:36
; FORMAT={-:-/ absolute / inch / decimal}
; #@! TF.CreationDate,2020-07-26T20:56:36-07:00
; #@! TF.GenerationSoftware,Kicad,Pcbnew,(5.1.6)-1
; #@! TF.FileFunction,Plated,1,2,PTH
FMAT,2
INCH
T1C0.0157
T2C0.0217
T3C0.0236
T4C0.0315
T5C0.0394
T6C0.0433
T7C0.0472
T8C0.0709
T9C0.1260
T10C0.3120
%
G90
G05
T1
X2.377Y-3.086
X2.455Y-4.477
X4.4311Y-3.8244
X4.5323Y-3.9535
X4.5323Y-4.048
X4.5394Y-4.5657
X4.5398Y-4.1516
X4.5429Y-4.265
X4.5429Y-4.6634
X4.5429Y-4.7543
X4.5465Y-4.4571
X4.55Y-4.3453
X4.5567Y-4.8661
X4.5953Y-3.6461
X4.5988Y-3.5551
X4.5988Y-3.7508
X4.6024Y-3.4504
X4.9661Y-4.863
X4.9835Y-4.6705
X4.9906Y-4.3488
X5.0008Y-4.2508
X5.0114Y-4.5795
X5.0429Y-3.2441
X5.05Y-3.3559
X5.4705Y-2.985
X5.5008Y-3.2472
X5.5079Y-3.3488
X5.5185Y-2.9528
X5.5898Y-2.8299
X5.6339Y-2.874
X5.6583Y-3.3173
X5.6728Y-2.913
X5.7004Y-3.1461
X5.7421Y-3.2193
X7.515Y-3.7193
X7.5709Y-3.4783
X7.7701Y-3.737
T2
X6.449Y-2.6
X6.449Y-2.65
X6.449Y-2.7
X2.7142Y-3.0
X2.7142Y-3.05
X2.7142Y-3.1
X3.55Y-3.6
X3.55Y-3.65
X3.55Y-3.7
X2.7142Y-4.2
X2.7142Y-4.25
X2.7142Y-4.3
X6.449Y-3.8
X6.449Y-3.85
X6.449Y-3.9
X7.3Y-3.8
X7.3Y-3.85
X7.3Y-3.9
X2.7142Y-2.6
X2.7142Y-2.65
X2.7142Y-2.7
X2.7142Y-5.0
X2.7142Y-5.05
X2.7142Y-5.1
X6.449Y-2.2
X6.449Y-2.25
X6.449Y-2.3
X3.55Y-4.4
X3.55Y-4.45
X3.55Y-4.5
X3.55Y-3.2
X3.55Y-3.25
X3.55Y-3.3
X7.3Y-3.0
X7.3Y-3.05
X7.3Y-3.1
X2.7142Y-2.2
X2.7142Y-2.25
X2.7142Y-2.3
X2.7142Y-5.4
X2.7142Y-5.45
X2.7142Y-5.5
X7.3Y-2.2
X7.3Y-2.25
X7.3Y-2.3
X7.3Y-3.4
X7.3Y-3.45
X7.3Y-3.5
X3.55Y-4.0
X3.55Y-4.05
X3.55Y-4.1
X2.7142Y-3.8
X2.7142Y-3.85
X2.7142Y-3.9
X7.3Y-2.6
X7.3Y-2.65
X7.3Y-2.7
X3.55Y-2.8
X3.55Y-2.85
X3.55Y-2.9
X2.7142Y-4.6
X2.7142Y-4.65
X2.7142Y-4.7
X2.7142Y-3.4
X2.7142Y-3.45
X2.7142Y-3.5
X6.449Y-3.4
X6.449Y-3.45
X6.449Y-3.5
X6.449Y-3.0
X6.449Y-3.05
X6.449Y-3.1
X3.55Y-4.8
X3.55Y-4.85
X3.55Y-4.9
T3
X5.175Y-4.5
X6.5Y-4.16
X7.25Y-5.4051
X7.41Y-4.04
T4
X2.9142Y-3.0
X3.3142Y-3.0
X5.849Y-3.6
X6.249Y-3.6
X2.9142Y-2.2
X3.3142Y-2.2
X3.75Y-2.8
X4.15Y-2.8
X6.7Y-3.2
X7.1Y-3.2
X3.75Y-3.4
X4.15Y-3.4
X2.9142Y-3.8
X3.3142Y-3.8
X3.75Y-4.4
X4.15Y-4.4
X7.6Y-4.3551
X7.7969Y-4.3551
X5.849Y-3.4
X6.249Y-3.4
X3.75Y-3.6
X4.15Y-3.6
X2.9142Y-3.4
X3.3142Y-3.4
X2.9142Y-2.4
X3.3142Y-2.4
X7.4169Y-5.5516
X7.4169Y-5.65
X2.9142Y-5.4
X3.3142Y-5.4
X2.9142Y-5.0
X3.3142Y-5.0
X3.75Y-4.8
X4.15Y-4.8
X6.15Y-4.35
X6.3469Y-4.35
X5.849Y-3.2
X6.249Y-3.2
X3.75Y-3.0
X4.15Y-3.0
X2.9142Y-3.2
X3.3142Y-3.2
X5.849Y-3.8
X6.249Y-3.8
X6.7Y-2.8
X7.1Y-2.8
X2.9142Y-5.2
X3.3142Y-5.2
X2.9142Y-5.6
X3.3142Y-5.6
X3.75Y-3.2
X4.15Y-3.2
X6.8Y-5.2551
X6.8Y-5.452
X6.25Y-4.75
X6.25Y-4.8484
X5.849Y-2.6
X6.249Y-2.6
X2.9142Y-2.8
X3.3142Y-2.8
X6.7Y-4.0
X7.1Y-4.0
X5.849Y-2.4
X6.249Y-2.4
X6.7Y-3.6
X7.1Y-3.6
X6.7Y-2.2
X7.1Y-2.2
X2.9142Y-4.8
X3.3142Y-4.8
X2.9142Y-4.6
X3.3142Y-4.6
X3.8047Y-5.5999
X4.1Y-5.655
X4.2Y-5.3
X4.2Y-5.3984
X5.849Y-2.8
X6.249Y-2.8
X2.9142Y-2.6
X3.3142Y-2.6
X6.7Y-2.4
X7.1Y-2.4
X6.7Y-3.0
X7.1Y-3.0
X2.9142Y-4.0
X3.3142Y-4.0
X3.75Y-4.2
X4.15Y-4.2
X7.7Y-4.7551
X7.7Y-4.8535
X5.849Y-4.0
X6.249Y-4.0
X5.849Y-2.2
X6.249Y-2.2
X5.35Y-5.4
X5.4484Y-5.4
X6.7Y-2.6
X7.1Y-2.6
X2.9142Y-4.4
X3.3142Y-4.4
X3.75Y-4.0
X4.15Y-4.0
X5.849Y-3.0
X6.249Y-3.0
X2.9142Y-3.6
X3.3142Y-3.6
X3.75Y-3.8
X4.15Y-3.8
X5.1Y-5.3
X5.1984Y-5.3
X6.7Y-3.8
X7.1Y-3.8
X6.7Y-3.4
X7.1Y-3.4
X3.75Y-5.0
X4.15Y-5.0
X2.9142Y-4.2
X3.3142Y-4.2
X3.75Y-4.6
X4.15Y-4.6
T5
X4.8Y-3.1
X4.8Y-3.2
X4.8Y-3.3
X4.8Y-3.4
X4.8Y-3.5
X4.8Y-3.6
X4.8Y-3.7
X4.8Y-3.8
X4.8Y-3.9
X4.8Y-4.0
X4.8Y-4.1
X4.8Y-4.2
X4.8Y-4.3
X4.8Y-4.4
X4.8Y-4.5
X4.8Y-4.6
X4.8Y-4.7
X4.8Y-4.8
X4.9Y-3.1
X4.9Y-3.2
X4.9Y-3.3
X4.9Y-3.4
X4.9Y-3.5
X4.9Y-3.6
X4.9Y-3.7
X4.9Y-3.8
X4.9Y-3.9
X4.9Y-4.0
X4.9Y-4.1
X4.9Y-4.2
X4.9Y-4.3
X4.9Y-4.4
X4.9Y-4.5
X4.9Y-4.6
X4.9Y-4.7
X4.9Y-4.8
X7.725Y-2.9
X7.725Y-3.0091
X7.725Y-3.1181
X7.725Y-3.2272
X7.725Y-3.3362
X7.725Y-3.4453
X7.725Y-3.5543
X7.725Y-3.6634
X7.8368Y-2.9545
X7.8368Y-3.0636
X7.8368Y-3.1726
X7.8368Y-3.2817
X7.8368Y-3.3907
X7.8368Y-3.4998
X7.8368Y-3.6089
X2.1582Y-3.5811
X2.1582Y-3.6902
X2.1582Y-3.7993
X2.1582Y-3.9083
X2.1582Y-4.0174
X2.1582Y-4.1264
X2.1582Y-4.2355
X2.27Y-3.5266
X2.27Y-3.6357
X2.27Y-3.7447
X2.27Y-3.8538
X2.27Y-3.9628
X2.27Y-4.0719
X2.27Y-4.1809
X2.27Y-4.29
T6
X7.4Y-4.3551
X7.4Y-5.3551
X5.35Y-5.25
X5.65Y-5.25
X7.1Y-5.2551
X7.1Y-5.5551
X4.4Y-5.5
X4.7Y-5.5
X4.4Y-5.7
X4.7Y-5.7
X4.4Y-5.3
X4.7Y-5.3
X5.95Y-4.35
X5.95Y-5.35
X4.9Y-5.3
X4.9Y-5.6
T7
X5.375Y-5.1
X5.475Y-5.1
X5.575Y-5.1
X2.2Y-5.1441
X2.2Y-5.4
X2.3772Y-5.1441
X2.3772Y-5.4
X2.2Y-2.3256
X2.2Y-2.5815
X2.3772Y-2.3256
X2.3772Y-2.5815
X6.825Y-5.1
X6.925Y-5.1
X7.025Y-5.1
T8
X2.4Y-5.71
X2.6165Y-5.71
T9
X7.7809Y-2.6262
X7.7809Y-3.9372
X2.2141Y-3.2528
X2.2141Y-4.5638
T10
X6.4276Y-5.5732
T0
M30
