M48
; DRILL file {KiCad (5.1.6)-1} date 07/18/20 16:20:08
; FORMAT={-:-/ absolute / inch / decimal}
; #@! TF.CreationDate,2020-07-18T16:20:08-07:00
; #@! TF.GenerationSoftware,Kicad,Pcbnew,(5.1.6)-1
; #@! TF.FileFunction,Plated,1,2,PTH
FMAT,2
INCH
T1C0.0157
T2C0.0217
T3C0.0300
T4C0.0315
T5C0.0394
T6C0.0949
T7C0.1260
%
G90
G05
T1
X3.0016Y-5.4752
X3.0217Y-5.7012
X3.1213Y-3.5531
X3.2055Y-4.3091
X3.2122Y-4.3965
X3.3213Y-5.3953
X3.3252Y-5.739
X3.5516Y-2.4709
X3.5606Y-5.3992
X3.6319Y-2.2228
X3.6366Y-5.4992
X3.8984Y-5.7571
X4.3402Y-5.1957
X4.4606Y-3.8004
X4.5465Y-2.1362
X4.6Y-2.23
X4.6461Y-2.4571
X4.7Y-2.23
X4.7752Y-2.2681
X4.9736Y-3.2
X4.9972Y-3.298
X5.0209Y-3.3988
X5.0445Y-3.5004
X5.0681Y-3.6008
X5.0917Y-3.6949
X5.1098Y-4.7016
X5.1154Y-3.8008
X5.1323Y-4.5937
X5.139Y-3.9008
X5.1504Y-4.498
X5.1626Y-4.0004
X5.1705Y-4.0996
X5.1807Y-4.3961
X5.298Y-5.0315
X5.402Y-5.0598
X5.4921Y-3.2402
X5.4992Y-3.3453
X5.5059Y-3.4465
X5.5059Y-3.5445
X5.5219Y-4.9113
X5.5228Y-5.7657
X5.6Y-5.1575
X5.6602Y-2.2638
X5.6634Y-2.6425
X5.6732Y-2.1583
X5.6898Y-4.6996
X5.7Y-2.23
X5.702Y-4.8358
X5.7087Y-5.763
X5.7106Y-4.6004
X5.7343Y-4.2976
X5.7402Y-2.4535
X5.7559Y-4.5039
X5.7579Y-4.2016
X5.7618Y-5.2634
X5.7772Y-4.0988
X5.7858Y-4.3961
X5.8Y-2.23
X5.8287Y-5.7425
X5.84Y-2.2635
X5.9098Y-5.1035
X5.9138Y-4.822
X5.9535Y-2.3803
X6.1594Y-4.8358
X6.7929Y-3.2747
X6.7929Y-3.3322
X6.7929Y-3.3632
X6.7929Y-3.4802
X7.1394Y-4.3642
X7.1543Y-4.2543
X7.1626Y-4.452
X7.1835Y-3.9499
X7.2697Y-2.8231
X7.3965Y-2.1669
X7.3984Y-2.5717
X7.4315Y-2.2106
X7.4319Y-2.6019
X7.4654Y-2.6342
X7.4657Y-2.2444
X7.53Y-5.061
X7.53Y-5.353
X7.744Y-4.987
X7.744Y-5.67
X7.764Y-3.934
X7.802Y-4.547
X7.8299Y-3.2566
X7.8299Y-3.4704
X7.8299Y-3.7287
X7.8299Y-3.7865
X7.9122Y-3.5882
X7.932Y-4.917
X7.94Y-4.65
X7.94Y-4.76
X7.98Y-4.65
X8.038Y-4.939
X8.04Y-5.249
X8.152Y-4.092
T2
X4.761Y-2.35
X4.761Y-2.4
X4.761Y-2.45
X3.65Y-2.35
X3.65Y-2.4
X3.65Y-2.45
X5.85Y-2.35
X5.85Y-2.4
X5.85Y-2.45
T3
X2.77Y-5.5909
X2.77Y-5.7091
X2.8881Y-5.5909
X2.8881Y-5.7091
T4
X3.6Y-3.0571
X3.6984Y-3.0571
X4.2Y-4.65
X4.2984Y-4.65
X4.2Y-3.65
X4.2984Y-3.65
X7.8628Y-4.0312
X7.8628Y-4.4312
X8.1628Y-3.8627
X8.3596Y-3.8627
X3.3Y-4.05
X3.7Y-4.05
X2.8516Y-5.35
X2.95Y-5.35
X5.05Y-2.15
X5.45Y-2.15
X6.3585Y-3.7812
X6.3585Y-3.8796
X6.3585Y-3.5328
X6.3585Y-3.6312
X3.6Y-3.85
X3.6984Y-3.85
X3.95Y-2.15
X4.35Y-2.15
X6.5992Y-4.176
X6.6976Y-4.176
X3.75Y-2.55
X4.15Y-2.55
X3.6Y-4.65
X3.6984Y-4.65
X2.85Y-2.15
X3.25Y-2.15
X6.775Y-5.425
X6.775Y-5.525
X6.775Y-5.625
X6.775Y-5.725
X7.075Y-5.425
X7.075Y-5.525
X7.075Y-5.625
X7.075Y-5.725
X3.9Y-3.3
X4.3Y-3.3
X6.8085Y-3.8826
X6.8085Y-3.981
X4.45Y-2.15
X4.85Y-2.15
X6.6085Y-3.5891
X6.6085Y-3.7812
X2.95Y-2.35
X2.95Y-2.4484
X7.6774Y-4.0328
X7.6774Y-4.1312
X3.3016Y-3.0661
X3.4Y-3.0661
X3.3016Y-4.65
X3.4Y-4.65
X4.2Y-3.15
X4.2984Y-3.15
X6.2992Y-4.366
X6.6992Y-4.366
X3.9Y-4.85
X4.3Y-4.85
X6.2969Y-4.1786
X6.3953Y-4.1786
X5.55Y-2.15
X5.95Y-2.15
X3.9Y-5.275
X4.3Y-5.275
X3.9016Y-3.65
X4.0Y-3.65
X6.6085Y-3.3312
X6.7069Y-3.3312
X3.9Y-5.1
X3.9984Y-5.1
X2.65Y-2.55
X3.05Y-2.55
X3.3016Y-4.25
X3.4Y-4.25
X8.0128Y-3.9127
X8.0128Y-4.3127
X3.2Y-5.45
X3.2Y-5.85
X6.2992Y-4.566
X6.6992Y-4.566
X3.9Y-3.8
X4.3Y-3.8
X3.3Y-5.25
X3.7Y-5.25
X7.1596Y-4.0328
X7.1596Y-4.1312
X3.3Y-4.85
X3.7Y-4.85
X3.9016Y-3.15
X4.0Y-3.15
X7.2961Y-2.6326
X7.2961Y-2.731
X4.2Y-5.1
X4.2984Y-5.1
X3.3016Y-3.45
X3.4Y-3.45
X3.9Y-3.45
X4.3Y-3.45
X3.1Y-5.45
X3.1Y-5.85
X3.9Y-4.3
X4.3Y-4.3
X7.45Y-5.6016
X7.45Y-5.7
X7.45Y-5.3016
X7.45Y-5.4
X7.91Y-3.2312
X8.0085Y-3.2312
X3.3Y-3.25
X3.7Y-3.25
X4.2Y-4.15
X4.2984Y-4.15
X7.725Y-4.7016
X7.725Y-4.8
X3.6Y-3.45
X3.6984Y-3.45
X3.3016Y-3.85
X3.4Y-3.85
X6.675Y-5.275
X7.075Y-5.275
X4.85Y-2.55
X5.25Y-2.55
X3.9Y-4.45
X4.3Y-4.45
X6.31Y-3.3312
X6.4085Y-3.3312
X3.9Y-3.95
X4.3Y-3.95
X5.15Y-2.352
X5.15Y-2.4504
X3.3Y-4.45
X3.7Y-4.45
X3.9016Y-4.15
X4.0Y-4.15
X3.9016Y-4.65
X4.0Y-4.65
X3.3Y-5.1
X3.7Y-5.1
X3.9024Y-5.4646
X4.0008Y-5.4646
X3.6Y-4.25
X3.6984Y-4.25
X6.2992Y-4.466
X6.6992Y-4.466
X8.1628Y-4.3127
X8.3596Y-4.3127
X3.35Y-2.15
X3.75Y-2.15
X7.2Y-5.65
X7.2Y-5.7484
X7.45Y-5.0016
X7.45Y-5.1
X4.05Y-2.35
X4.05Y-2.4484
X3.3Y-3.65
X3.7Y-3.65
X7.2Y-5.4266
X7.2Y-5.525
T5
X5.3Y-3.1
X5.3Y-3.2
X5.3Y-3.3
X5.3Y-3.4
X5.3Y-3.5
X5.3Y-3.6
X5.3Y-3.7
X5.3Y-3.8
X5.3Y-3.9
X5.3Y-4.0
X5.3Y-4.1
X5.3Y-4.2
X5.3Y-4.3
X5.3Y-4.4
X5.3Y-4.5
X5.3Y-4.6
X5.3Y-4.7
X5.3Y-4.8
X5.4Y-3.1
X5.4Y-3.2
X5.4Y-3.3
X5.4Y-3.4
X5.4Y-3.5
X5.4Y-3.6
X5.4Y-3.7
X5.4Y-3.8
X5.4Y-3.9
X5.4Y-4.0
X5.4Y-4.1
X5.4Y-4.2
X5.4Y-4.3
X5.4Y-4.4
X5.4Y-4.5
X5.4Y-4.6
X5.4Y-4.7
X5.4Y-4.8
X5.35Y-2.352
X5.35Y-2.452
X5.35Y-2.552
X5.65Y-2.352
X5.65Y-2.452
X5.65Y-2.552
X3.15Y-2.35
X3.15Y-2.45
X3.15Y-2.55
X3.45Y-2.35
X3.45Y-2.45
X3.45Y-2.55
X2.6632Y-3.2359
X2.6632Y-3.3449
X2.6632Y-3.454
X2.6632Y-3.563
X2.6632Y-3.6721
X2.6632Y-3.7811
X2.6632Y-3.8902
X2.6632Y-3.9993
X2.6632Y-4.1083
X2.6632Y-4.2174
X2.6632Y-4.3264
X2.6632Y-4.4355
X2.775Y-3.1813
X2.775Y-3.2904
X2.775Y-3.3994
X2.775Y-3.5085
X2.775Y-3.6176
X2.775Y-3.7266
X2.775Y-3.8357
X2.775Y-3.9447
X2.775Y-4.0538
X2.775Y-4.1628
X2.775Y-4.2719
X2.775Y-4.3809
X2.775Y-4.49
X8.125Y-5.0063
X8.125Y-5.1154
X8.125Y-5.2244
X8.125Y-5.3335
X8.125Y-5.4425
X8.2368Y-5.0608
X8.2368Y-5.1699
X8.2368Y-5.2789
X8.2368Y-5.388
X7.6Y-5.0
X7.6Y-5.1
X7.6Y-5.2
X7.6Y-5.3
X7.6Y-5.4
X7.6Y-5.5
X7.6Y-5.6
X7.6Y-5.7
X7.9Y-5.0
X7.9Y-5.1
X7.9Y-5.2
X7.9Y-5.3
X7.9Y-5.4
X7.9Y-5.5
X7.9Y-5.6
X7.9Y-5.7
X4.25Y-2.35
X4.25Y-2.45
X4.25Y-2.55
X4.55Y-2.35
X4.55Y-2.45
X4.55Y-2.55
T6
X2.5999Y-5.5059
X2.5999Y-5.7941
T7
X2.7191Y-2.9085
X2.7191Y-4.7628
X8.1809Y-4.7323
X8.1809Y-5.7165
T0
M30
