%TF.GenerationSoftware,KiCad,Pcbnew,(5.1.6)-1*%
%TF.CreationDate,2020-07-18T16:19:54-07:00*%
%TF.ProjectId,BPEM488THD,4250454d-3438-4385-9448-442e6b696361,rev?*%
%TF.SameCoordinates,Original*%
%TF.FileFunction,Soldermask,Top*%
%TF.FilePolarity,Negative*%
%FSLAX46Y46*%
G04 Gerber Fmt 4.6, Leading zero omitted, Abs format (unit mm)*
G04 Created by KiCad (PCBNEW (5.1.6)-1) date 2020-07-18 16:19:54*
%MOMM*%
%LPD*%
G01*
G04 APERTURE LIST*
%ADD10C,4.100000*%
%ADD11C,1.700000*%
%ADD12R,1.700000X1.700000*%
%ADD13O,1.700000X1.700000*%
%ADD14R,2.132000X0.481000*%
%ADD15R,0.481000X2.132000*%
%ADD16C,1.600000*%
%ADD17R,1.600000X1.100000*%
%ADD18O,1.600000X1.100000*%
%ADD19O,1.800000X1.800000*%
%ADD20R,1.800000X1.800000*%
%ADD21R,1.624000X1.624000*%
%ADD22C,1.624000*%
%ADD23C,3.148000*%
G04 APERTURE END LIST*
D10*
%TO.C,J202*%
X69065000Y-120976000D03*
X69065000Y-73876000D03*
D11*
X67645000Y-82191000D03*
X67645000Y-84961000D03*
X67645000Y-87731000D03*
X67645000Y-90501000D03*
X67645000Y-93271000D03*
X67645000Y-96041000D03*
X67645000Y-98811000D03*
X67645000Y-101581000D03*
X67645000Y-104351000D03*
X67645000Y-107121000D03*
X67645000Y-109891000D03*
X67645000Y-112661000D03*
X70485000Y-80806000D03*
X70485000Y-83576000D03*
X70485000Y-86346000D03*
X70485000Y-89116000D03*
X70485000Y-91886000D03*
X70485000Y-94656000D03*
X70485000Y-97426000D03*
X70485000Y-100196000D03*
X70485000Y-102966000D03*
X70485000Y-105736000D03*
X70485000Y-108506000D03*
X70485000Y-111276000D03*
D12*
X70485000Y-114046000D03*
%TD*%
D10*
%TO.C,J201*%
X207795000Y-120200000D03*
X207795000Y-145200000D03*
D11*
X209215000Y-136855000D03*
X209215000Y-134085000D03*
X209215000Y-131315000D03*
X209215000Y-128545000D03*
X206375000Y-138240000D03*
X206375000Y-135470000D03*
X206375000Y-132700000D03*
X206375000Y-129930000D03*
D12*
X206375000Y-127160000D03*
%TD*%
D13*
%TO.C,R211*%
X109220000Y-133985000D03*
D11*
X99060000Y-133985000D03*
%TD*%
%TO.C,C232*%
X196215000Y-121920000D03*
X196215000Y-119420000D03*
%TD*%
%TO.C,C231*%
X189230000Y-134660000D03*
X189230000Y-137160000D03*
%TD*%
D14*
%TO.C,U301*%
X196620500Y-78377300D03*
X196620500Y-79025000D03*
X196620500Y-79672700D03*
X196620500Y-80320400D03*
X196620500Y-80968100D03*
X196620500Y-81628500D03*
X196620500Y-82276200D03*
X196620500Y-82923900D03*
X196620500Y-83571600D03*
X196620500Y-84219300D03*
X196620500Y-84879700D03*
X196620500Y-85527400D03*
X196620500Y-86175100D03*
X196620500Y-86822800D03*
X196620500Y-87483200D03*
X196620500Y-88130900D03*
X196620500Y-88778600D03*
X196620500Y-89426300D03*
X196620500Y-90086700D03*
X196620500Y-90734400D03*
X196620500Y-91382100D03*
X196620500Y-92029800D03*
X196620500Y-92677500D03*
X196620500Y-93337900D03*
X196620500Y-93985600D03*
X196620500Y-94633300D03*
X196620500Y-95281000D03*
X196620500Y-95928700D03*
D15*
X194410700Y-98138500D03*
X193763000Y-98138500D03*
X193115300Y-98138500D03*
X192467600Y-98138500D03*
X191819900Y-98138500D03*
X191159500Y-98138500D03*
X190511800Y-98138500D03*
X189864100Y-98138500D03*
X189216400Y-98138500D03*
X188568700Y-98138500D03*
X187908300Y-98138500D03*
X187260600Y-98138500D03*
X186612900Y-98138500D03*
X185965200Y-98138500D03*
X185304800Y-98138500D03*
X184657100Y-98138500D03*
X184009400Y-98138500D03*
X183361700Y-98138500D03*
X182701300Y-98138500D03*
X182053600Y-98138500D03*
X181405900Y-98138500D03*
X180758200Y-98138500D03*
X180110500Y-98138500D03*
X179450100Y-98138500D03*
X178802400Y-98138500D03*
X178154700Y-98138500D03*
X177507000Y-98138500D03*
X176859300Y-98138500D03*
D14*
X174649500Y-95928700D03*
X174649500Y-95281000D03*
X174649500Y-94633300D03*
X174649500Y-93985600D03*
X174649500Y-93337900D03*
X174649500Y-92677500D03*
X174649500Y-92029800D03*
X174649500Y-91382100D03*
X174649500Y-90734400D03*
X174649500Y-90086700D03*
X174649500Y-89426300D03*
X174649500Y-88778600D03*
X174649500Y-88130900D03*
X174649500Y-87483200D03*
X174649500Y-86822800D03*
X174649500Y-86175100D03*
X174649500Y-85527400D03*
X174649500Y-84879700D03*
X174649500Y-84219300D03*
X174649500Y-83571600D03*
X174649500Y-82923900D03*
X174649500Y-82276200D03*
X174649500Y-81628500D03*
X174649500Y-80968100D03*
X174649500Y-80320400D03*
X174649500Y-79672700D03*
X174649500Y-79025000D03*
X174649500Y-78377300D03*
D15*
X176859300Y-76167500D03*
X177507000Y-76167500D03*
X178154700Y-76167500D03*
X178802400Y-76167500D03*
X179450100Y-76167500D03*
X180110500Y-76167500D03*
X180758200Y-76167500D03*
X181405900Y-76167500D03*
X182053600Y-76167500D03*
X182701300Y-76167500D03*
X183361700Y-76167500D03*
X184009400Y-76167500D03*
X184657100Y-76167500D03*
X185304800Y-76167500D03*
X185965200Y-76167500D03*
X186612900Y-76167500D03*
X187260600Y-76167500D03*
X187908300Y-76167500D03*
X188568700Y-76167500D03*
X189216400Y-76167500D03*
X189864100Y-76167500D03*
X190511800Y-76167500D03*
X191159500Y-76167500D03*
X191819900Y-76167500D03*
X192467600Y-76167500D03*
X193115300Y-76167500D03*
X193763000Y-76167500D03*
X194410700Y-76167500D03*
%TD*%
D11*
%TO.C,U205*%
X200660000Y-144780000D03*
X193040000Y-144780000D03*
X200660000Y-127000000D03*
X200660000Y-129540000D03*
X200660000Y-132080000D03*
X200660000Y-134620000D03*
X200660000Y-137160000D03*
X200660000Y-139700000D03*
X200660000Y-142240000D03*
X193040000Y-142240000D03*
X193040000Y-139700000D03*
X193040000Y-137160000D03*
X193040000Y-134620000D03*
X193040000Y-132080000D03*
X193040000Y-129540000D03*
D12*
X193040000Y-127000000D03*
%TD*%
D11*
%TO.C,C303*%
X185320000Y-69368000D03*
X185320000Y-66868000D03*
%TD*%
%TO.C,C307*%
X170355000Y-84613000D03*
D12*
X167855000Y-84613000D03*
%TD*%
D16*
%TO.C,Y301*%
X167855000Y-91163000D03*
X167855000Y-96043000D03*
%TD*%
D11*
%TO.C,U204*%
X80010000Y-64770000D03*
X80010000Y-62230000D03*
X80010000Y-59690000D03*
X87630000Y-59690000D03*
X87630000Y-62230000D03*
D12*
X87630000Y-64770000D03*
%TD*%
D11*
%TO.C,U203*%
X107950000Y-64770000D03*
X107950000Y-62230000D03*
X107950000Y-59690000D03*
X115570000Y-59690000D03*
X115570000Y-62230000D03*
D12*
X115570000Y-64770000D03*
%TD*%
D11*
%TO.C,U202*%
X135890000Y-64820000D03*
X135890000Y-62280000D03*
X135890000Y-59740000D03*
X143510000Y-59740000D03*
X143510000Y-62280000D03*
D12*
X143510000Y-64820000D03*
%TD*%
D13*
%TO.C,U201*%
X172085000Y-145415000D03*
X179705000Y-137795000D03*
X172085000Y-142875000D03*
X179705000Y-140335000D03*
X172085000Y-140335000D03*
X179705000Y-142875000D03*
X172085000Y-137795000D03*
D12*
X179705000Y-145415000D03*
%TD*%
D13*
%TO.C,R304*%
X199715000Y-102393000D03*
D11*
X199715000Y-112553000D03*
%TD*%
D13*
%TO.C,R303*%
X203525000Y-109543000D03*
D11*
X203525000Y-99383000D03*
%TD*%
D13*
%TO.C,R302*%
X78740000Y-138430000D03*
D11*
X78740000Y-148590000D03*
%TD*%
D13*
%TO.C,R301*%
X81280000Y-138430000D03*
D11*
X81280000Y-148590000D03*
%TD*%
D13*
%TO.C,R225*%
X133350000Y-64770000D03*
D11*
X123190000Y-64770000D03*
%TD*%
D13*
%TO.C,R214*%
X160000000Y-115976000D03*
D11*
X170160000Y-115976000D03*
%TD*%
D13*
%TO.C,R204*%
X109220000Y-87630000D03*
D11*
X99060000Y-87630000D03*
%TD*%
D13*
%TO.C,R203*%
X170160000Y-110896000D03*
D11*
X160000000Y-110896000D03*
%TD*%
D13*
%TO.C,R202*%
X170160000Y-113436000D03*
D11*
X160000000Y-113436000D03*
%TD*%
D13*
%TO.C,R201*%
X169545000Y-133985000D03*
D11*
X179705000Y-133985000D03*
%TD*%
D17*
%TO.C,Q203*%
X92710000Y-59690000D03*
D18*
X92710000Y-62230000D03*
X92710000Y-60960000D03*
%TD*%
D17*
%TO.C,Q202*%
X120930000Y-59690000D03*
D18*
X120930000Y-62230000D03*
X120930000Y-60960000D03*
%TD*%
D17*
%TO.C,Q201*%
X148590000Y-59690000D03*
D18*
X148590000Y-62230000D03*
X148590000Y-60960000D03*
%TD*%
D19*
%TO.C,J302*%
X134620000Y-121920000D03*
X137160000Y-121920000D03*
X134620000Y-119380000D03*
X137160000Y-119380000D03*
X134620000Y-116840000D03*
X137160000Y-116840000D03*
X134620000Y-114300000D03*
X137160000Y-114300000D03*
X134620000Y-111760000D03*
X137160000Y-111760000D03*
X134620000Y-109220000D03*
X137160000Y-109220000D03*
X134620000Y-106680000D03*
X137160000Y-106680000D03*
X134620000Y-104140000D03*
X137160000Y-104140000D03*
X134620000Y-101600000D03*
X137160000Y-101600000D03*
X134620000Y-99060000D03*
X137160000Y-99060000D03*
X134620000Y-96520000D03*
X137160000Y-96520000D03*
X134620000Y-93980000D03*
X137160000Y-93980000D03*
X134620000Y-91440000D03*
X137160000Y-91440000D03*
X134620000Y-88900000D03*
X137160000Y-88900000D03*
X134620000Y-86360000D03*
X137160000Y-86360000D03*
X134620000Y-83820000D03*
X137160000Y-83820000D03*
X134620000Y-81280000D03*
X137160000Y-81280000D03*
X134620000Y-78740000D03*
D20*
X137160000Y-78740000D03*
%TD*%
D21*
%TO.C,J301*%
X70358000Y-145010000D03*
D22*
X70358000Y-142010000D03*
D23*
X66038000Y-147170000D03*
X66038000Y-139850000D03*
D22*
X73358000Y-145010000D03*
X73358000Y-142010000D03*
%TD*%
D11*
%TO.C,C312*%
X212335000Y-109543000D03*
D12*
X207335000Y-109543000D03*
%TD*%
D11*
%TO.C,C311*%
X212335000Y-98113000D03*
D12*
X207335000Y-98113000D03*
%TD*%
D11*
%TO.C,C310*%
X172935000Y-101118000D03*
X172935000Y-98618000D03*
%TD*%
%TO.C,C309*%
X160275000Y-84613000D03*
D12*
X162775000Y-84613000D03*
%TD*%
D11*
%TO.C,C308*%
X72430000Y-135890000D03*
X74930000Y-135890000D03*
%TD*%
%TO.C,C306*%
X200915000Y-82073000D03*
D12*
X203415000Y-82073000D03*
%TD*%
D11*
%TO.C,C305*%
X195005000Y-102433000D03*
X195005000Y-104933000D03*
%TD*%
%TO.C,C304*%
X181855000Y-102433000D03*
X181855000Y-104933000D03*
%TD*%
%TO.C,C302*%
X161505000Y-98543000D03*
X161505000Y-96043000D03*
%TD*%
%TO.C,C301*%
X161505000Y-89733000D03*
X161505000Y-92233000D03*
%TD*%
%TO.C,C229*%
X74930000Y-62190000D03*
X74930000Y-59690000D03*
%TD*%
%TO.C,C228*%
X102870000Y-62190000D03*
X102870000Y-59690000D03*
%TD*%
%TO.C,C227*%
X130810000Y-62240000D03*
X130810000Y-59740000D03*
%TD*%
%TO.C,C218*%
X182880000Y-146010000D03*
X182880000Y-143510000D03*
%TD*%
%TO.C,C217*%
X182880000Y-137835000D03*
X182880000Y-140335000D03*
%TD*%
%TO.C,C212*%
X99100000Y-105410000D03*
X101600000Y-105410000D03*
%TD*%
%TO.C,C211*%
X99100000Y-92710000D03*
X101600000Y-92710000D03*
%TD*%
%TO.C,C210*%
X99100000Y-80010000D03*
X101600000Y-80010000D03*
%TD*%
%TO.C,C209*%
X159940000Y-106136000D03*
X162440000Y-106136000D03*
%TD*%
%TO.C,C204*%
X109180000Y-105410000D03*
X106680000Y-105410000D03*
%TD*%
%TO.C,C203*%
X109180000Y-92710000D03*
X106680000Y-92710000D03*
%TD*%
%TO.C,C202*%
X109180000Y-80010000D03*
X106680000Y-80010000D03*
%TD*%
%TO.C,C201*%
X170120000Y-106070000D03*
X167620000Y-106070000D03*
%TD*%
%TO.C,C205*%
X109180000Y-118110000D03*
X106680000Y-118110000D03*
%TD*%
%TO.C,C206*%
X106680000Y-129540000D03*
X109180000Y-129540000D03*
%TD*%
%TO.C,C207*%
X99120000Y-138800000D03*
X101620000Y-138800000D03*
%TD*%
%TO.C,C208*%
X91440000Y-77650000D03*
X93940000Y-77650000D03*
%TD*%
%TO.C,C213*%
X101600000Y-118110000D03*
X99100000Y-118110000D03*
%TD*%
%TO.C,C214*%
X99060000Y-129540000D03*
X101560000Y-129540000D03*
%TD*%
%TO.C,C216*%
X86360000Y-77880000D03*
X83860000Y-77880000D03*
%TD*%
%TO.C,C219*%
X93940000Y-87630000D03*
X91440000Y-87630000D03*
%TD*%
%TO.C,C220*%
X91440000Y-97790000D03*
X93940000Y-97790000D03*
%TD*%
%TO.C,C221*%
X93940000Y-107950000D03*
X91440000Y-107950000D03*
%TD*%
%TO.C,C222*%
X91440000Y-118110000D03*
X93940000Y-118110000D03*
%TD*%
%TO.C,C223*%
X83860000Y-87630000D03*
X86360000Y-87630000D03*
%TD*%
%TO.C,C224*%
X86360000Y-97790000D03*
X83860000Y-97790000D03*
%TD*%
%TO.C,C225*%
X83860000Y-107950000D03*
X86360000Y-107950000D03*
%TD*%
%TO.C,C226*%
X86360000Y-118110000D03*
X83860000Y-118110000D03*
%TD*%
%TO.C,C230*%
X189230000Y-129540000D03*
X189230000Y-127040000D03*
%TD*%
%TO.C,C233*%
X189230000Y-142280000D03*
X189230000Y-144780000D03*
%TD*%
%TO.C,R205*%
X99060000Y-83820000D03*
D13*
X109220000Y-83820000D03*
%TD*%
%TO.C,R206*%
X109220000Y-100330000D03*
D11*
X99060000Y-100330000D03*
%TD*%
D13*
%TO.C,R207*%
X109220000Y-96520000D03*
D11*
X99060000Y-96520000D03*
%TD*%
D13*
%TO.C,R208*%
X109220000Y-113030000D03*
D11*
X99060000Y-113030000D03*
%TD*%
%TO.C,R209*%
X99060000Y-109220000D03*
D13*
X109220000Y-109220000D03*
%TD*%
D11*
%TO.C,R210*%
X99060000Y-123190000D03*
D13*
X109220000Y-123190000D03*
%TD*%
D11*
%TO.C,R212*%
X83820000Y-133350000D03*
D13*
X93980000Y-133350000D03*
%TD*%
%TO.C,R213*%
X93980000Y-82550000D03*
D11*
X83820000Y-82550000D03*
%TD*%
D13*
%TO.C,R215*%
X93980000Y-92710000D03*
D11*
X83820000Y-92710000D03*
%TD*%
%TO.C,R216*%
X83820000Y-102870000D03*
D13*
X93980000Y-102870000D03*
%TD*%
%TO.C,R217*%
X93980000Y-113030000D03*
D11*
X83820000Y-113030000D03*
%TD*%
%TO.C,R218*%
X83820000Y-123190000D03*
D13*
X93980000Y-123190000D03*
%TD*%
D11*
%TO.C,R219*%
X140970000Y-54610000D03*
D13*
X151130000Y-54610000D03*
%TD*%
%TO.C,R220*%
X123190000Y-54610000D03*
D11*
X113030000Y-54610000D03*
%TD*%
%TO.C,R221*%
X85090000Y-54610000D03*
D13*
X95250000Y-54610000D03*
%TD*%
%TO.C,R222*%
X138430000Y-54610000D03*
D11*
X128270000Y-54610000D03*
%TD*%
%TO.C,R223*%
X100330000Y-54610000D03*
D13*
X110490000Y-54610000D03*
%TD*%
%TO.C,R224*%
X82550000Y-54610000D03*
D11*
X72390000Y-54610000D03*
%TD*%
%TO.C,R226*%
X95250000Y-64770000D03*
D13*
X105410000Y-64770000D03*
%TD*%
%TO.C,R227*%
X77470000Y-64770000D03*
D11*
X67310000Y-64770000D03*
%TD*%
%TO.C,R228*%
X83820000Y-129540000D03*
D13*
X93980000Y-129540000D03*
%TD*%
M02*
