%TF.GenerationSoftware,KiCad,Pcbnew,(5.1.6)-1*%
%TF.CreationDate,2020-07-18T16:28:39-07:00*%
%TF.ProjectId,BPEM488TDHAux,4250454d-3438-4385-9444-484175782e6b,rev?*%
%TF.SameCoordinates,Original*%
%TF.FileFunction,Legend,Bot*%
%TF.FilePolarity,Positive*%
%FSLAX46Y46*%
G04 Gerber Fmt 4.6, Leading zero omitted, Abs format (unit mm)*
G04 Created by KiCad (PCBNEW (5.1.6)-1) date 2020-07-18 16:28:39*
%MOMM*%
%LPD*%
G01*
G04 APERTURE LIST*
%ADD10C,0.150000*%
G04 APERTURE END LIST*
D10*
X124087619Y-58568571D02*
X123944761Y-58616190D01*
X123897142Y-58663809D01*
X123849523Y-58759047D01*
X123849523Y-58901904D01*
X123897142Y-58997142D01*
X123944761Y-59044761D01*
X124040000Y-59092380D01*
X124420952Y-59092380D01*
X124420952Y-58092380D01*
X124087619Y-58092380D01*
X123992380Y-58140000D01*
X123944761Y-58187619D01*
X123897142Y-58282857D01*
X123897142Y-58378095D01*
X123944761Y-58473333D01*
X123992380Y-58520952D01*
X124087619Y-58568571D01*
X124420952Y-58568571D01*
X123420952Y-59092380D02*
X123420952Y-58092380D01*
X123040000Y-58092380D01*
X122944761Y-58140000D01*
X122897142Y-58187619D01*
X122849523Y-58282857D01*
X122849523Y-58425714D01*
X122897142Y-58520952D01*
X122944761Y-58568571D01*
X123040000Y-58616190D01*
X123420952Y-58616190D01*
X122420952Y-58568571D02*
X122087619Y-58568571D01*
X121944761Y-59092380D02*
X122420952Y-59092380D01*
X122420952Y-58092380D01*
X121944761Y-58092380D01*
X121516190Y-59092380D02*
X121516190Y-58092380D01*
X121182857Y-58806666D01*
X120849523Y-58092380D01*
X120849523Y-59092380D01*
X119944761Y-58425714D02*
X119944761Y-59092380D01*
X120182857Y-58044761D02*
X120420952Y-58759047D01*
X119801904Y-58759047D01*
X119278095Y-58520952D02*
X119373333Y-58473333D01*
X119420952Y-58425714D01*
X119468571Y-58330476D01*
X119468571Y-58282857D01*
X119420952Y-58187619D01*
X119373333Y-58140000D01*
X119278095Y-58092380D01*
X119087619Y-58092380D01*
X118992380Y-58140000D01*
X118944761Y-58187619D01*
X118897142Y-58282857D01*
X118897142Y-58330476D01*
X118944761Y-58425714D01*
X118992380Y-58473333D01*
X119087619Y-58520952D01*
X119278095Y-58520952D01*
X119373333Y-58568571D01*
X119420952Y-58616190D01*
X119468571Y-58711428D01*
X119468571Y-58901904D01*
X119420952Y-58997142D01*
X119373333Y-59044761D01*
X119278095Y-59092380D01*
X119087619Y-59092380D01*
X118992380Y-59044761D01*
X118944761Y-58997142D01*
X118897142Y-58901904D01*
X118897142Y-58711428D01*
X118944761Y-58616190D01*
X118992380Y-58568571D01*
X119087619Y-58520952D01*
X118325714Y-58520952D02*
X118420952Y-58473333D01*
X118468571Y-58425714D01*
X118516190Y-58330476D01*
X118516190Y-58282857D01*
X118468571Y-58187619D01*
X118420952Y-58140000D01*
X118325714Y-58092380D01*
X118135238Y-58092380D01*
X118040000Y-58140000D01*
X117992380Y-58187619D01*
X117944761Y-58282857D01*
X117944761Y-58330476D01*
X117992380Y-58425714D01*
X118040000Y-58473333D01*
X118135238Y-58520952D01*
X118325714Y-58520952D01*
X118420952Y-58568571D01*
X118468571Y-58616190D01*
X118516190Y-58711428D01*
X118516190Y-58901904D01*
X118468571Y-58997142D01*
X118420952Y-59044761D01*
X118325714Y-59092380D01*
X118135238Y-59092380D01*
X118040000Y-59044761D01*
X117992380Y-58997142D01*
X117944761Y-58901904D01*
X117944761Y-58711428D01*
X117992380Y-58616190D01*
X118040000Y-58568571D01*
X118135238Y-58520952D01*
X116801904Y-58806666D02*
X116325714Y-58806666D01*
X116897142Y-59092380D02*
X116563809Y-58092380D01*
X116230476Y-59092380D01*
X115468571Y-58425714D02*
X115468571Y-59092380D01*
X115897142Y-58425714D02*
X115897142Y-58949523D01*
X115849523Y-59044761D01*
X115754285Y-59092380D01*
X115611428Y-59092380D01*
X115516190Y-59044761D01*
X115468571Y-58997142D01*
X115087619Y-59092380D02*
X114563809Y-58425714D01*
X115087619Y-58425714D02*
X114563809Y-59092380D01*
X129730476Y-60742380D02*
X129730476Y-59742380D01*
X129492380Y-59742380D01*
X129349523Y-59790000D01*
X129254285Y-59885238D01*
X129206666Y-59980476D01*
X129159047Y-60170952D01*
X129159047Y-60313809D01*
X129206666Y-60504285D01*
X129254285Y-60599523D01*
X129349523Y-60694761D01*
X129492380Y-60742380D01*
X129730476Y-60742380D01*
X128349523Y-60694761D02*
X128444761Y-60742380D01*
X128635238Y-60742380D01*
X128730476Y-60694761D01*
X128778095Y-60599523D01*
X128778095Y-60218571D01*
X128730476Y-60123333D01*
X128635238Y-60075714D01*
X128444761Y-60075714D01*
X128349523Y-60123333D01*
X128301904Y-60218571D01*
X128301904Y-60313809D01*
X128778095Y-60409047D01*
X127920952Y-60694761D02*
X127825714Y-60742380D01*
X127635238Y-60742380D01*
X127540000Y-60694761D01*
X127492380Y-60599523D01*
X127492380Y-60551904D01*
X127540000Y-60456666D01*
X127635238Y-60409047D01*
X127778095Y-60409047D01*
X127873333Y-60361428D01*
X127920952Y-60266190D01*
X127920952Y-60218571D01*
X127873333Y-60123333D01*
X127778095Y-60075714D01*
X127635238Y-60075714D01*
X127540000Y-60123333D01*
X127063809Y-60742380D02*
X127063809Y-60075714D01*
X127063809Y-59742380D02*
X127111428Y-59790000D01*
X127063809Y-59837619D01*
X127016190Y-59790000D01*
X127063809Y-59742380D01*
X127063809Y-59837619D01*
X126159047Y-60075714D02*
X126159047Y-60885238D01*
X126206666Y-60980476D01*
X126254285Y-61028095D01*
X126349523Y-61075714D01*
X126492380Y-61075714D01*
X126587619Y-61028095D01*
X126159047Y-60694761D02*
X126254285Y-60742380D01*
X126444761Y-60742380D01*
X126540000Y-60694761D01*
X126587619Y-60647142D01*
X126635238Y-60551904D01*
X126635238Y-60266190D01*
X126587619Y-60170952D01*
X126540000Y-60123333D01*
X126444761Y-60075714D01*
X126254285Y-60075714D01*
X126159047Y-60123333D01*
X125682857Y-60075714D02*
X125682857Y-60742380D01*
X125682857Y-60170952D02*
X125635238Y-60123333D01*
X125540000Y-60075714D01*
X125397142Y-60075714D01*
X125301904Y-60123333D01*
X125254285Y-60218571D01*
X125254285Y-60742380D01*
X124397142Y-60694761D02*
X124492380Y-60742380D01*
X124682857Y-60742380D01*
X124778095Y-60694761D01*
X124825714Y-60599523D01*
X124825714Y-60218571D01*
X124778095Y-60123333D01*
X124682857Y-60075714D01*
X124492380Y-60075714D01*
X124397142Y-60123333D01*
X124349523Y-60218571D01*
X124349523Y-60313809D01*
X124825714Y-60409047D01*
X123492380Y-60742380D02*
X123492380Y-59742380D01*
X123492380Y-60694761D02*
X123587619Y-60742380D01*
X123778095Y-60742380D01*
X123873333Y-60694761D01*
X123920952Y-60647142D01*
X123968571Y-60551904D01*
X123968571Y-60266190D01*
X123920952Y-60170952D01*
X123873333Y-60123333D01*
X123778095Y-60075714D01*
X123587619Y-60075714D01*
X123492380Y-60123333D01*
X122254285Y-60742380D02*
X122254285Y-59742380D01*
X122254285Y-60123333D02*
X122159047Y-60075714D01*
X121968571Y-60075714D01*
X121873333Y-60123333D01*
X121825714Y-60170952D01*
X121778095Y-60266190D01*
X121778095Y-60551904D01*
X121825714Y-60647142D01*
X121873333Y-60694761D01*
X121968571Y-60742380D01*
X122159047Y-60742380D01*
X122254285Y-60694761D01*
X121444761Y-60075714D02*
X121206666Y-60742380D01*
X120968571Y-60075714D02*
X121206666Y-60742380D01*
X121301904Y-60980476D01*
X121349523Y-61028095D01*
X121444761Y-61075714D01*
X119254285Y-60742380D02*
X119587619Y-60266190D01*
X119825714Y-60742380D02*
X119825714Y-59742380D01*
X119444761Y-59742380D01*
X119349523Y-59790000D01*
X119301904Y-59837619D01*
X119254285Y-59932857D01*
X119254285Y-60075714D01*
X119301904Y-60170952D01*
X119349523Y-60218571D01*
X119444761Y-60266190D01*
X119825714Y-60266190D01*
X118682857Y-60742380D02*
X118778095Y-60694761D01*
X118825714Y-60647142D01*
X118873333Y-60551904D01*
X118873333Y-60266190D01*
X118825714Y-60170952D01*
X118778095Y-60123333D01*
X118682857Y-60075714D01*
X118540000Y-60075714D01*
X118444761Y-60123333D01*
X118397142Y-60170952D01*
X118349523Y-60266190D01*
X118349523Y-60551904D01*
X118397142Y-60647142D01*
X118444761Y-60694761D01*
X118540000Y-60742380D01*
X118682857Y-60742380D01*
X117920952Y-60742380D02*
X117920952Y-59742380D01*
X117920952Y-60123333D02*
X117825714Y-60075714D01*
X117635238Y-60075714D01*
X117540000Y-60123333D01*
X117492380Y-60170952D01*
X117444761Y-60266190D01*
X117444761Y-60551904D01*
X117492380Y-60647142D01*
X117540000Y-60694761D01*
X117635238Y-60742380D01*
X117825714Y-60742380D01*
X117920952Y-60694761D01*
X116635238Y-60694761D02*
X116730476Y-60742380D01*
X116920952Y-60742380D01*
X117016190Y-60694761D01*
X117063809Y-60599523D01*
X117063809Y-60218571D01*
X117016190Y-60123333D01*
X116920952Y-60075714D01*
X116730476Y-60075714D01*
X116635238Y-60123333D01*
X116587619Y-60218571D01*
X116587619Y-60313809D01*
X117063809Y-60409047D01*
X116159047Y-60742380D02*
X116159047Y-60075714D01*
X116159047Y-60266190D02*
X116111428Y-60170952D01*
X116063809Y-60123333D01*
X115968571Y-60075714D01*
X115873333Y-60075714D01*
X115682857Y-60075714D02*
X115301904Y-60075714D01*
X115540000Y-59742380D02*
X115540000Y-60599523D01*
X115492380Y-60694761D01*
X115397142Y-60742380D01*
X115301904Y-60742380D01*
X114206666Y-60742380D02*
X114206666Y-59742380D01*
X114206666Y-60218571D02*
X113635238Y-60218571D01*
X113635238Y-60742380D02*
X113635238Y-59742380D01*
X113159047Y-60742380D02*
X113159047Y-60075714D01*
X113159047Y-59742380D02*
X113206666Y-59790000D01*
X113159047Y-59837619D01*
X113111428Y-59790000D01*
X113159047Y-59742380D01*
X113159047Y-59837619D01*
X112301904Y-60694761D02*
X112397142Y-60742380D01*
X112587619Y-60742380D01*
X112682857Y-60694761D01*
X112730476Y-60599523D01*
X112730476Y-60218571D01*
X112682857Y-60123333D01*
X112587619Y-60075714D01*
X112397142Y-60075714D01*
X112301904Y-60123333D01*
X112254285Y-60218571D01*
X112254285Y-60313809D01*
X112730476Y-60409047D01*
X111825714Y-60742380D02*
X111825714Y-59742380D01*
X111825714Y-60123333D02*
X111730476Y-60075714D01*
X111540000Y-60075714D01*
X111444761Y-60123333D01*
X111397142Y-60170952D01*
X111349523Y-60266190D01*
X111349523Y-60551904D01*
X111397142Y-60647142D01*
X111444761Y-60694761D01*
X111540000Y-60742380D01*
X111730476Y-60742380D01*
X111825714Y-60694761D01*
X110540000Y-60694761D02*
X110635238Y-60742380D01*
X110825714Y-60742380D01*
X110920952Y-60694761D01*
X110968571Y-60599523D01*
X110968571Y-60218571D01*
X110920952Y-60123333D01*
X110825714Y-60075714D01*
X110635238Y-60075714D01*
X110540000Y-60123333D01*
X110492380Y-60218571D01*
X110492380Y-60313809D01*
X110968571Y-60409047D01*
X110063809Y-60742380D02*
X110063809Y-60075714D01*
X110063809Y-60266190D02*
X110016190Y-60170952D01*
X109968571Y-60123333D01*
X109873333Y-60075714D01*
X109778095Y-60075714D01*
X109587619Y-60075714D02*
X109206666Y-60075714D01*
X109444761Y-59742380D02*
X109444761Y-60599523D01*
X109397142Y-60694761D01*
X109301904Y-60742380D01*
X109206666Y-60742380D01*
X123016190Y-61392380D02*
X122349523Y-61392380D01*
X122778095Y-62392380D01*
X121968571Y-62011428D02*
X121206666Y-62011428D01*
X120206666Y-62392380D02*
X120778095Y-62392380D01*
X120492380Y-62392380D02*
X120492380Y-61392380D01*
X120587619Y-61535238D01*
X120682857Y-61630476D01*
X120778095Y-61678095D01*
X119635238Y-61820952D02*
X119730476Y-61773333D01*
X119778095Y-61725714D01*
X119825714Y-61630476D01*
X119825714Y-61582857D01*
X119778095Y-61487619D01*
X119730476Y-61440000D01*
X119635238Y-61392380D01*
X119444761Y-61392380D01*
X119349523Y-61440000D01*
X119301904Y-61487619D01*
X119254285Y-61582857D01*
X119254285Y-61630476D01*
X119301904Y-61725714D01*
X119349523Y-61773333D01*
X119444761Y-61820952D01*
X119635238Y-61820952D01*
X119730476Y-61868571D01*
X119778095Y-61916190D01*
X119825714Y-62011428D01*
X119825714Y-62201904D01*
X119778095Y-62297142D01*
X119730476Y-62344761D01*
X119635238Y-62392380D01*
X119444761Y-62392380D01*
X119349523Y-62344761D01*
X119301904Y-62297142D01*
X119254285Y-62201904D01*
X119254285Y-62011428D01*
X119301904Y-61916190D01*
X119349523Y-61868571D01*
X119444761Y-61820952D01*
X118825714Y-62011428D02*
X118063809Y-62011428D01*
X117635238Y-61487619D02*
X117587619Y-61440000D01*
X117492380Y-61392380D01*
X117254285Y-61392380D01*
X117159047Y-61440000D01*
X117111428Y-61487619D01*
X117063809Y-61582857D01*
X117063809Y-61678095D01*
X117111428Y-61820952D01*
X117682857Y-62392380D01*
X117063809Y-62392380D01*
X116444761Y-61392380D02*
X116349523Y-61392380D01*
X116254285Y-61440000D01*
X116206666Y-61487619D01*
X116159047Y-61582857D01*
X116111428Y-61773333D01*
X116111428Y-62011428D01*
X116159047Y-62201904D01*
X116206666Y-62297142D01*
X116254285Y-62344761D01*
X116349523Y-62392380D01*
X116444761Y-62392380D01*
X116540000Y-62344761D01*
X116587619Y-62297142D01*
X116635238Y-62201904D01*
X116682857Y-62011428D01*
X116682857Y-61773333D01*
X116635238Y-61582857D01*
X116587619Y-61487619D01*
X116540000Y-61440000D01*
X116444761Y-61392380D01*
M02*
