%TF.GenerationSoftware,KiCad,Pcbnew,(5.1.6)-1*%
%TF.CreationDate,2020-07-26T20:56:43-07:00*%
%TF.ProjectId,BPEM488TDHAux,4250454d-3438-4385-9444-484175782e6b,rev?*%
%TF.SameCoordinates,Original*%
%TF.FileFunction,Soldermask,Top*%
%TF.FilePolarity,Negative*%
%FSLAX46Y46*%
G04 Gerber Fmt 4.6, Leading zero omitted, Abs format (unit mm)*
G04 Created by KiCad (PCBNEW (5.1.6)-1) date 2020-07-26 20:56:43*
%MOMM*%
%LPD*%
G01*
G04 APERTURE LIST*
%ADD10C,4.100000*%
%ADD11C,1.700000*%
%ADD12R,1.700000X1.700000*%
%ADD13C,8.228000*%
%ADD14O,2.005000X2.100000*%
%ADD15R,2.005000X2.100000*%
%ADD16O,3.600000X3.600000*%
%ADD17C,1.900000*%
%ADD18R,2.300000X2.300000*%
%ADD19O,2.300000X2.300000*%
%ADD20O,3.800000X2.800000*%
%ADD21C,3.100000*%
%ADD22C,2.300000*%
%ADD23O,1.600000X1.100000*%
%ADD24R,1.600000X1.100000*%
%ADD25O,1.700000X1.700000*%
%ADD26R,1.800000X1.800000*%
%ADD27O,1.800000X1.800000*%
%ADD28C,0.254000*%
G04 APERTURE END LIST*
D10*
%TO.C,J4*%
X197635000Y-66705000D03*
X197635000Y-100005000D03*
D11*
X199055000Y-91665000D03*
X199055000Y-88895000D03*
X199055000Y-86125000D03*
X199055000Y-83355000D03*
X199055000Y-80585000D03*
X199055000Y-77815000D03*
X199055000Y-75045000D03*
X196215000Y-93050000D03*
X196215000Y-90280000D03*
X196215000Y-87510000D03*
X196215000Y-84740000D03*
X196215000Y-81970000D03*
X196215000Y-79200000D03*
X196215000Y-76430000D03*
D12*
X196215000Y-73660000D03*
%TD*%
D10*
%TO.C,J3*%
X56238000Y-115921000D03*
X56238000Y-82621000D03*
D11*
X54818000Y-90961000D03*
X54818000Y-93731000D03*
X54818000Y-96501000D03*
X54818000Y-99271000D03*
X54818000Y-102041000D03*
X54818000Y-104811000D03*
X54818000Y-107581000D03*
X57658000Y-89576000D03*
X57658000Y-92346000D03*
X57658000Y-95116000D03*
X57658000Y-97886000D03*
X57658000Y-100656000D03*
X57658000Y-103426000D03*
X57658000Y-106196000D03*
D12*
X57658000Y-108966000D03*
%TD*%
D13*
%TO.C,REF\u002A\u002A*%
X163260000Y-141560000D03*
%TD*%
D14*
%TO.C,U2*%
X178435000Y-129540000D03*
X175895000Y-129540000D03*
D15*
X173355000Y-129540000D03*
D16*
X175895000Y-113740000D03*
%TD*%
D14*
%TO.C,U1*%
X141605000Y-129540000D03*
X139065000Y-129540000D03*
D15*
X136525000Y-129540000D03*
D16*
X139065000Y-113740000D03*
%TD*%
D17*
%TO.C,RV1*%
X96640000Y-142237000D03*
X104140000Y-143637000D03*
%TD*%
D11*
%TO.C,C1*%
X106680000Y-134620000D03*
X106680000Y-137120000D03*
%TD*%
%TO.C,C3*%
X172720000Y-138479540D03*
D12*
X172720000Y-133479540D03*
%TD*%
D11*
%TO.C,C6*%
X158750000Y-123150000D03*
X158750000Y-120650000D03*
%TD*%
%TO.C,C7*%
X195580000Y-120779540D03*
X195580000Y-123279540D03*
%TD*%
%TO.C,C8*%
X161210000Y-110490000D03*
D12*
X156210000Y-110490000D03*
%TD*%
%TO.C,C9*%
X193040000Y-110619540D03*
D11*
X198040000Y-110619540D03*
%TD*%
D18*
%TO.C,D1*%
X111760000Y-139700000D03*
D19*
X119380000Y-139700000D03*
%TD*%
%TO.C,D2*%
X119380000Y-144780000D03*
D18*
X111760000Y-144780000D03*
%TD*%
%TO.C,D3*%
X119380000Y-134620000D03*
D19*
X111760000Y-134620000D03*
%TD*%
%TO.C,D4*%
X124460000Y-142240000D03*
D18*
X124460000Y-134620000D03*
%TD*%
D19*
%TO.C,D5*%
X135890000Y-133350000D03*
D18*
X143510000Y-133350000D03*
%TD*%
%TO.C,D6*%
X180340000Y-141099540D03*
D19*
X180340000Y-133479540D03*
%TD*%
%TO.C,J1*%
G36*
G01*
X62600740Y-146434000D02*
X59319260Y-146434000D01*
G75*
G02*
X59060000Y-146174740I0J259260D01*
G01*
X59060000Y-143893260D01*
G75*
G02*
X59319260Y-143634000I259260J0D01*
G01*
X62600740Y-143634000D01*
G75*
G02*
X62860000Y-143893260I0J-259260D01*
G01*
X62860000Y-146174740D01*
G75*
G02*
X62600740Y-146434000I-259260J0D01*
G01*
G37*
D20*
X66460000Y-145034000D03*
D21*
X53660000Y-145034000D03*
%TD*%
D22*
%TO.C,L1*%
X151130000Y-135890000D03*
D19*
X151130000Y-110490000D03*
%TD*%
%TO.C,L2*%
X187960000Y-110619540D03*
D22*
X187960000Y-136019540D03*
%TD*%
D23*
%TO.C,Q1*%
X68940680Y-77470000D03*
X68940680Y-76200000D03*
D24*
X68940680Y-78740000D03*
%TD*%
%TO.C,Q2*%
X68940680Y-88900000D03*
D23*
X68940680Y-86360000D03*
X68940680Y-87630000D03*
%TD*%
D24*
%TO.C,Q3*%
X68940680Y-99060000D03*
D23*
X68940680Y-96520000D03*
X68940680Y-97790000D03*
%TD*%
%TO.C,Q4*%
X68940680Y-107950000D03*
X68940680Y-106680000D03*
D24*
X68940680Y-109220000D03*
%TD*%
%TO.C,Q5*%
X68940680Y-119380000D03*
D23*
X68940680Y-116840000D03*
X68940680Y-118110000D03*
%TD*%
D24*
%TO.C,Q6*%
X90170000Y-83820000D03*
D23*
X90170000Y-81280000D03*
X90170000Y-82550000D03*
%TD*%
%TO.C,Q7*%
X68940680Y-128270000D03*
X68940680Y-127000000D03*
D24*
X68940680Y-129540000D03*
%TD*%
%TO.C,Q8*%
X68940680Y-139700000D03*
D23*
X68940680Y-137160000D03*
X68940680Y-138430000D03*
%TD*%
%TO.C,Q9*%
X90170000Y-123190000D03*
X90170000Y-121920000D03*
D24*
X90170000Y-124460000D03*
%TD*%
%TO.C,Q10*%
X90170000Y-114300000D03*
D23*
X90170000Y-111760000D03*
X90170000Y-113030000D03*
%TD*%
%TO.C,Q11*%
X90170000Y-102870000D03*
X90170000Y-101600000D03*
D24*
X90170000Y-104140000D03*
%TD*%
D23*
%TO.C,Q12*%
X90170000Y-92710000D03*
X90170000Y-91440000D03*
D24*
X90170000Y-93980000D03*
%TD*%
D23*
%TO.C,Q13*%
X163804600Y-57150000D03*
X163804600Y-58420000D03*
D24*
X163804600Y-55880000D03*
%TD*%
%TO.C,Q14*%
X163804600Y-66040000D03*
D23*
X163804600Y-68580000D03*
X163804600Y-67310000D03*
%TD*%
%TO.C,Q15*%
X163804600Y-77470000D03*
X163804600Y-78740000D03*
D24*
X163804600Y-76200000D03*
%TD*%
%TO.C,Q16*%
X163804600Y-86360000D03*
D23*
X163804600Y-88900000D03*
X163804600Y-87630000D03*
%TD*%
%TO.C,Q17*%
X163804600Y-97790000D03*
X163804600Y-99060000D03*
D24*
X163804600Y-96520000D03*
%TD*%
%TO.C,Q18*%
X68940680Y-68580000D03*
D23*
X68940680Y-66040000D03*
X68940680Y-67310000D03*
%TD*%
%TO.C,Q19*%
X68940680Y-57150000D03*
X68940680Y-55880000D03*
D24*
X68940680Y-58420000D03*
%TD*%
%TO.C,Q20*%
X90170000Y-73660000D03*
D23*
X90170000Y-71120000D03*
X90170000Y-72390000D03*
%TD*%
%TO.C,Q21*%
X185420000Y-97790000D03*
X185420000Y-99060000D03*
D24*
X185420000Y-96520000D03*
%TD*%
%TO.C,Q22*%
X185420000Y-86360000D03*
D23*
X185420000Y-88900000D03*
X185420000Y-87630000D03*
%TD*%
%TO.C,Q23*%
X185420000Y-77470000D03*
X185420000Y-78740000D03*
D24*
X185420000Y-76200000D03*
%TD*%
%TO.C,Q24*%
X185420000Y-66040000D03*
D23*
X185420000Y-68580000D03*
X185420000Y-67310000D03*
%TD*%
%TO.C,Q25*%
X185420000Y-57150000D03*
X185420000Y-58420000D03*
D24*
X185420000Y-55880000D03*
%TD*%
D25*
%TO.C,R1*%
X84180680Y-76200000D03*
D11*
X74020680Y-76200000D03*
%TD*%
%TO.C,R2*%
X74020680Y-81280000D03*
D25*
X84180680Y-81280000D03*
%TD*%
%TO.C,R3*%
X84180680Y-86360000D03*
D11*
X74020680Y-86360000D03*
%TD*%
%TO.C,R4*%
X74020680Y-91440000D03*
D25*
X84180680Y-91440000D03*
%TD*%
D11*
%TO.C,R5*%
X74020680Y-96520000D03*
D25*
X84180680Y-96520000D03*
%TD*%
D11*
%TO.C,R6*%
X74020680Y-101600000D03*
D25*
X84180680Y-101600000D03*
%TD*%
%TO.C,R7*%
X84180680Y-106680000D03*
D11*
X74020680Y-106680000D03*
%TD*%
D25*
%TO.C,R8*%
X84180680Y-111760000D03*
D11*
X74020680Y-111760000D03*
%TD*%
%TO.C,R9*%
X74020680Y-116840000D03*
D25*
X84180680Y-116840000D03*
%TD*%
D11*
%TO.C,R10*%
X74020680Y-121920000D03*
D25*
X84180680Y-121920000D03*
%TD*%
%TO.C,R11*%
X105410000Y-81280000D03*
D11*
X95250000Y-81280000D03*
%TD*%
D25*
%TO.C,R12*%
X105410000Y-86360000D03*
D11*
X95250000Y-86360000D03*
%TD*%
D25*
%TO.C,R13*%
X84180680Y-127000000D03*
D11*
X74020680Y-127000000D03*
%TD*%
%TO.C,R14*%
X74020680Y-132080000D03*
D25*
X84180680Y-132080000D03*
%TD*%
D11*
%TO.C,R15*%
X74020680Y-137160000D03*
D25*
X84180680Y-137160000D03*
%TD*%
%TO.C,R16*%
X84180680Y-142240000D03*
D11*
X74020680Y-142240000D03*
%TD*%
D25*
%TO.C,R17*%
X105410000Y-121920000D03*
D11*
X95250000Y-121920000D03*
%TD*%
D25*
%TO.C,R18*%
X105410000Y-127000000D03*
D11*
X95250000Y-127000000D03*
%TD*%
%TO.C,R19*%
X95250000Y-111760000D03*
D25*
X105410000Y-111760000D03*
%TD*%
D11*
%TO.C,R20*%
X95250000Y-116840000D03*
D25*
X105410000Y-116840000D03*
%TD*%
%TO.C,R21*%
X105410000Y-101600000D03*
D11*
X95250000Y-101600000D03*
%TD*%
D25*
%TO.C,R22*%
X105410000Y-106680000D03*
D11*
X95250000Y-106680000D03*
%TD*%
%TO.C,R23*%
X95250000Y-91440000D03*
D25*
X105410000Y-91440000D03*
%TD*%
D11*
%TO.C,R24*%
X95250000Y-96520000D03*
D25*
X105410000Y-96520000D03*
%TD*%
D11*
%TO.C,R25*%
X158724600Y-55880000D03*
D25*
X148564600Y-55880000D03*
%TD*%
D11*
%TO.C,R26*%
X158724600Y-60960000D03*
D25*
X148564600Y-60960000D03*
%TD*%
D11*
%TO.C,R27*%
X158724600Y-66040000D03*
D25*
X148564600Y-66040000D03*
%TD*%
%TO.C,R28*%
X148564600Y-71120000D03*
D11*
X158724600Y-71120000D03*
%TD*%
D25*
%TO.C,R29*%
X148564600Y-76200000D03*
D11*
X158724600Y-76200000D03*
%TD*%
%TO.C,R30*%
X158724600Y-81280000D03*
D25*
X148564600Y-81280000D03*
%TD*%
D11*
%TO.C,R31*%
X158724600Y-86360000D03*
D25*
X148564600Y-86360000D03*
%TD*%
%TO.C,R32*%
X148564600Y-91440000D03*
D11*
X158724600Y-91440000D03*
%TD*%
%TO.C,R33*%
X158724600Y-96520000D03*
D25*
X148564600Y-96520000D03*
%TD*%
D11*
%TO.C,R34*%
X158724600Y-101600000D03*
D25*
X148564600Y-101600000D03*
%TD*%
%TO.C,R35*%
X84180680Y-66040000D03*
D11*
X74020680Y-66040000D03*
%TD*%
D25*
%TO.C,R36*%
X84180680Y-71120000D03*
D11*
X74020680Y-71120000D03*
%TD*%
%TO.C,R37*%
X74020680Y-55880000D03*
D25*
X84180680Y-55880000D03*
%TD*%
%TO.C,R38*%
X84180680Y-60960000D03*
D11*
X74020680Y-60960000D03*
%TD*%
%TO.C,R39*%
X95250000Y-71120000D03*
D25*
X105410000Y-71120000D03*
%TD*%
D11*
%TO.C,R40*%
X95250000Y-76200000D03*
D25*
X105410000Y-76200000D03*
%TD*%
%TO.C,R41*%
X170180000Y-96520000D03*
D11*
X180340000Y-96520000D03*
%TD*%
D25*
%TO.C,R42*%
X170180000Y-101600000D03*
D11*
X180340000Y-101600000D03*
%TD*%
D25*
%TO.C,R43*%
X170180000Y-86360000D03*
D11*
X180340000Y-86360000D03*
%TD*%
%TO.C,R44*%
X180340000Y-91440000D03*
D25*
X170180000Y-91440000D03*
%TD*%
D11*
%TO.C,R45*%
X180340000Y-76200000D03*
D25*
X170180000Y-76200000D03*
%TD*%
%TO.C,R46*%
X170180000Y-81280000D03*
D11*
X180340000Y-81280000D03*
%TD*%
D25*
%TO.C,R47*%
X170180000Y-66040000D03*
D11*
X180340000Y-66040000D03*
%TD*%
%TO.C,R48*%
X180340000Y-71120000D03*
D25*
X170180000Y-71120000D03*
%TD*%
%TO.C,R49*%
X170180000Y-55880000D03*
D11*
X180340000Y-55880000D03*
%TD*%
D25*
%TO.C,R50*%
X170180000Y-60960000D03*
D11*
X180340000Y-60960000D03*
%TD*%
D22*
%TO.C,S1*%
X60380000Y-65570100D03*
X60380000Y-59070100D03*
X55880000Y-59070100D03*
D18*
X55880000Y-65570100D03*
%TD*%
%TO.C,S2*%
X55880000Y-137160000D03*
D22*
X55880000Y-130660000D03*
X60380000Y-130660000D03*
X60380000Y-137160000D03*
%TD*%
D26*
%TO.C,J2*%
X124460000Y-78740000D03*
D27*
X121920000Y-78740000D03*
X124460000Y-81280000D03*
X121920000Y-81280000D03*
X124460000Y-83820000D03*
X121920000Y-83820000D03*
X124460000Y-86360000D03*
X121920000Y-86360000D03*
X124460000Y-88900000D03*
X121920000Y-88900000D03*
X124460000Y-91440000D03*
X121920000Y-91440000D03*
X124460000Y-93980000D03*
X121920000Y-93980000D03*
X124460000Y-96520000D03*
X121920000Y-96520000D03*
X124460000Y-99060000D03*
X121920000Y-99060000D03*
X124460000Y-101600000D03*
X121920000Y-101600000D03*
X124460000Y-104140000D03*
X121920000Y-104140000D03*
X124460000Y-106680000D03*
X121920000Y-106680000D03*
X124460000Y-109220000D03*
X121920000Y-109220000D03*
X124460000Y-111760000D03*
X121920000Y-111760000D03*
X124460000Y-114300000D03*
X121920000Y-114300000D03*
X124460000Y-116840000D03*
X121920000Y-116840000D03*
X124460000Y-119380000D03*
X121920000Y-119380000D03*
X124460000Y-121920000D03*
X121920000Y-121920000D03*
%TD*%
D11*
%TO.C,C2*%
X132040000Y-134620000D03*
X129540000Y-134620000D03*
%TD*%
%TO.C,C4*%
X135890000Y-137160000D03*
X138390000Y-137160000D03*
%TD*%
%TO.C,C5*%
X188390000Y-141010000D03*
X188390000Y-143510000D03*
%TD*%
D28*
G36*
X144173000Y-126293000D02*
G01*
X133937000Y-126293000D01*
X133937000Y-110487000D01*
X133940000Y-110487000D01*
X133964776Y-110484560D01*
X133988601Y-110477333D01*
X134010557Y-110465597D01*
X134029803Y-110449803D01*
X134092606Y-110387000D01*
X144173000Y-110387000D01*
X144173000Y-126293000D01*
G37*
X144173000Y-126293000D02*
X133937000Y-126293000D01*
X133937000Y-110487000D01*
X133940000Y-110487000D01*
X133964776Y-110484560D01*
X133988601Y-110477333D01*
X134010557Y-110465597D01*
X134029803Y-110449803D01*
X134092606Y-110387000D01*
X144173000Y-110387000D01*
X144173000Y-126293000D01*
G36*
X181003000Y-126263000D02*
G01*
X170797000Y-126263000D01*
X170797000Y-110417000D01*
X181003000Y-110417000D01*
X181003000Y-126263000D01*
G37*
X181003000Y-126263000D02*
X170797000Y-126263000D01*
X170797000Y-110417000D01*
X181003000Y-110417000D01*
X181003000Y-126263000D01*
M02*
